<svg xmlns="http://www.w3.org/2000/svg" xmlns:xlink="http://www.w3.org/1999/xlink" version="1.1" x="0px" y="0px" viewBox="0 0 100 125" enable-background="new 0 0 100 100" xml:space="preserve"><g><path fill="#000000" d="M53.7,74.2c-0.4,0-0.7,0-1.1-0.1c-6.5-1.3-11.4-5.5-14.9-9c-3.6-3.6-7.9-8.5-9.1-15.2   c-0.4-2.1,0.3-4.2,1.8-5.7l0.9-0.9c1-1.1,2.4-1.6,3.9-1.6c1.5,0,2.9,0.6,3.9,1.6l1.4,1.4c1,1,1.5,2.5,1.4,3.9   c-0.2,1.5-1,2.7-2.3,3.5c-0.3,0.2-0.4,0.4-0.5,0.7c0,0.3,0,0.5,0.2,0.8l0.4,0.5c2.6,3.3,5.1,5.7,8.3,8.3l0.1,0.1   c0.4,0.3,0.8,0.4,1.3,0.4c0.4-0.1,0.8-0.4,1.1-0.8c0.7-1.1,1.8-1.9,3.1-2c1.3-0.2,2.6,0.3,3.5,1.2l1.9,1.9c2.1,2.1,2.2,5.7,0,7.8   l-1.5,1.5C56.5,73.6,55.1,74.2,53.7,74.2z M35.2,44.6c-0.7,0-1.3,0.3-1.8,0.8l-0.9,0.9c-0.8,0.8-1.1,1.9-0.9,3   c1.1,5.9,5,10.4,8.3,13.6c3.2,3.2,7.7,7.1,13.4,8.2c0.8,0.2,1.7-0.1,2.3-0.7l1.5-1.5c1-1,1-2.6,0-3.6l0,0L55,63.5   c-0.3-0.3-0.6-0.4-1-0.4c-0.4,0-0.7,0.3-0.9,0.6c-0.7,1.2-1.8,2-3.1,2.2c-1.3,0.2-2.6-0.1-3.7-1l-0.1-0.1c-3.4-2.7-6.1-5.4-8.8-8.8   L37,55.5c-0.7-0.9-1-2.1-0.8-3.2c0.2-1.1,0.9-2.1,1.9-2.7c0.5-0.3,0.8-0.8,0.8-1.3c0.1-0.5-0.1-1.1-0.5-1.5L37,45.4   C36.5,44.9,35.8,44.6,35.2,44.6z"/><g><path fill="#000000" d="M59,56.3c-0.8,0-1.5-0.7-1.5-1.5c0-5.5-4.5-10-10-10c-0.8,0-1.5-0.7-1.5-1.5c0-0.8,0.7-1.5,1.5-1.5    c7.2,0,13,5.8,13,13C60.5,55.6,59.8,56.3,59,56.3z"/><path fill="#000000" d="M70.8,56.3c-0.8,0-1.5-0.7-1.5-1.5c0-12-9.8-21.8-21.8-21.8c-0.8,0-1.5-0.7-1.5-1.5c0-0.8,0.7-1.5,1.5-1.5    c13.7,0,24.8,11.1,24.8,24.8C72.3,55.6,71.7,56.3,70.8,56.3z"/><path fill="#000000" d="M65,56.3c-0.8,0-1.5-0.7-1.5-1.5c0-8.8-7.2-16-16-16c-0.8,0-1.5-0.7-1.5-1.5c0-0.8,0.7-1.5,1.5-1.5    c10.5,0,19,8.5,19,19C66.5,55.6,65.8,56.3,65,56.3z"/></g></g><text x="0" y="115" fill="#000000" font-size="5px" font-weight="bold" font-family="'Helvetica Neue', Helvetica, Arial-Unicode, Arial, Sans-serif">Created by NAS</text><text x="0" y="120" fill="#000000" font-size="5px" font-weight="bold" font-family="'Helvetica Neue', Helvetica, Arial-Unicode, Arial, Sans-serif">from the Noun Project</text></svg>