<svg xmlns="http://www.w3.org/2000/svg" xmlns:xlink="http://www.w3.org/1999/xlink" version="1.1" x="0px" y="0px" viewBox="0 0 100 125" style="enable-background:new 0 0 100 100;" xml:space="preserve"><path d="M88.7,60.6c-1-16.3-15-29.1-31.9-29.1c-2.3,0-4.7,0.3-7,0.7c-2.3-0.5-4.6-0.7-7-0.7C26,31.5,12,44.3,11,60.6  c-0.1,2.1,0.6,4.2,2.1,5.8c1.5,1.6,3.5,2.4,5.6,2.4h10.8l51.2,0c0.1,0,0.2,0,0.3,0H81c2.1,0,4.1-0.9,5.6-2.4S88.9,62.8,88.7,60.6z   M18.7,66.8c-1.6,0-3.1-0.6-4.2-1.8c-1.1-1.2-1.6-2.7-1.5-4.3c0.9-15.3,14.1-27.2,29.9-27.2c16.2,0,29.9,12.4,29.9,27.2  c0,2.4,1.1,4.6,2.8,6.1L18.7,66.8z M85.2,65c-1.1,1.2-2.6,1.8-4.2,1.8h-0.1c0,0,0,0,0,0v0l-0.3,0c-3.2-0.1-5.8-2.8-5.8-6.1  c0-12.1-8.5-22.7-20.3-27.1c0.8-0.1,1.5-0.1,2.3-0.1c15.8,0,29,12,29.9,27.2C86.8,62.3,86.3,63.8,85.2,65z"/><text x="0" y="115" fill="#000000" font-size="5px" font-weight="bold" font-family="'Helvetica Neue', Helvetica, Arial-Unicode, Arial, Sans-serif">Created by Artem  Kovyazin</text><text x="0" y="120" fill="#000000" font-size="5px" font-weight="bold" font-family="'Helvetica Neue', Helvetica, Arial-Unicode, Arial, Sans-serif">from the Noun Project</text></svg>