<svg xmlns="http://www.w3.org/2000/svg" xmlns:xlink="http://www.w3.org/1999/xlink" version="1.1" x="0px" y="0px" viewBox="0 0 100 125" style="enable-background:new 0 0 100 100;" xml:space="preserve"><path d="M88.9,62.3C88,49,78.6,37.7,65.2,34.3c-1.5-2.6-4.3-4.4-7.5-4.4c-2.1,0-4,0.7-5.6,2c-0.7-0.3-1.4-0.4-2.1-0.4  c-1.3-1.3-3.1-2-4.9-2c-1.8,0-3.5,0.7-4.8,1.9c-2.1-0.7-4.4-0.6-6.4,0.3c-0.8-0.5-1.8-0.7-2.8-0.7c-2.3,0-4.3,1.4-5.1,3.4  c-0.1,0-0.2,0-0.3,0c-4.8,0-8.7,3.9-8.7,8.7c0,0.9,0.1,1.8,0.4,2.7c-3.6,4.7-5.9,10.4-6.3,16.6c-0.1,2.1,0.6,4.2,2.1,5.8  c1.5,1.6,3.5,2.4,5.6,2.4h10.8l49.3,0c0,0,0,0,0,0c0,0,0,0,0,0l1.8,0c0.1,0,0.2,0,0.3,0h0.1c2.1,0,4.1-0.9,5.6-2.4  C88.2,66.5,89,64.5,88.9,62.3z M45.1,31.5c1.4,0,2.8,0.6,3.8,1.7c0.2,0.2,0.5,0.4,0.8,0.3c0.1,0,0.1,0,0.3,0c0.6,0,1.2,0.2,1.8,0.5  c0.4,0.2,0.9,0.2,1.2-0.2c1.3-1.2,2.9-1.9,4.7-1.9c3.6,0,6.6,3,6.7,6.6c0,0.3,0.2,0.6,0.4,0.7c0.2,0.2,0.6,0.3,0.8,0.2  c0.1,0,0.3,0,0.4,0c2,0,3.6,1.6,3.6,3.5c0,0,0,0.1,0,0.2c0,0.5,0.3,0.9,0.8,1c2.7,0.4,4.7,2.6,5,5.2c0,0.4,0,0.9,0,1.4  c-0.1,0.5,0.2,0.9,0.7,1.1c1.9,0.6,3.2,2.4,3.2,4.5c0,0.3,0,0.7-0.1,1c-0.1,0.3,0,0.5,0.1,0.8c0.1,0.2,0.4,0.4,0.6,0.4  c2.3,0.5,4,2.6,4,4.9c0,2.5-1.8,4.5-4.1,5c-2.8-0.5-5-3-5-6c0-15.8-14.6-29.2-31.9-29.2c-0.6,0-1.2,0-1.8,0.1c0,0,0,0,0,0  C42.3,32.1,43.7,31.5,45.1,31.5z M19,43.1c0-3.7,3-6.7,6.7-6.7c0.3,0,0.6,0,0.8,0.1c0.5,0.1,1-0.3,1.1-0.7c0.4-1.6,1.8-2.7,3.5-2.7  c0.8,0,1.5,0.2,2.1,0.7c0.3,0.2,0.7,0.3,1.1,0.1c1.7-0.9,3.7-1,5.5-0.3c-8.2,0.8-15.6,4.7-20.8,10.4C19,43.5,19,43.3,19,43.1z   M18.8,68.5c-1.6,0-3.1-0.6-4.2-1.8c-0.2-0.2-0.3-0.4-0.5-0.6h15.5c0.6,0,1-0.4,1-1s-0.4-1-1-1H13.3c-0.1-0.5-0.2-1.1-0.1-1.6  c0-0.3,0-0.5,0.1-0.8h14.5c0.6,0,1-0.4,1-1s-0.4-1-1-1H13.4c0.1-0.8,0.3-1.6,0.5-2.4h11.7c0.6,0,1-0.4,1-1s-0.4-1-1-1H14.5  c0.3-0.8,0.6-1.6,0.9-2.4h9.2c0.6,0,1-0.4,1-1s-0.4-1-1-1h-8.2c0.4-0.8,0.9-1.6,1.4-2.4h7.8c0.6,0,1-0.4,1-1s-0.4-1-1-1h-6.3  c0.7-0.8,1.4-1.6,2.2-2.4h6.2c0.6,0,1-0.4,1-1s-0.4-1-1-1h-3.9c1.1-0.9,2.2-1.7,3.5-2.4c0,0,0.1,0,0.1,0h4.4c0.6,0,1-0.4,1-1  s-0.4-1-1-1h-0.6c3.7-1.5,7.7-2.4,11.9-2.4c16.2,0,29.9,12.4,29.9,27.2c0,2.4,1.1,4.6,2.8,6.1L18.8,68.5z M85.3,66.7  c-0.1,0.1-0.2,0.2-0.3,0.3c0.6-1,1-2.3,1-3.6c0-3-1.9-5.6-4.6-6.6c0-0.2,0-0.4,0-0.5c0-2.6-1.5-5-3.8-6.1c0-0.4,0-0.7,0-1  c-0.3-3.3-2.7-6-5.9-6.9c-0.3-2.7-2.6-4.7-5.3-4.9c0-0.3-0.1-0.5-0.2-0.8c11.7,3.6,19.9,13.8,20.7,25.8C87,64,86.4,65.6,85.3,66.7z"/><text x="0" y="115" fill="#000000" font-size="5px" font-weight="bold" font-family="'Helvetica Neue', Helvetica, Arial-Unicode, Arial, Sans-serif">Created by Artem  Kovyazin</text><text x="0" y="120" fill="#000000" font-size="5px" font-weight="bold" font-family="'Helvetica Neue', Helvetica, Arial-Unicode, Arial, Sans-serif">from the Noun Project</text></svg>