<svg xmlns="http://www.w3.org/2000/svg" xmlns:xlink="http://www.w3.org/1999/xlink" version="1.1" x="0px" y="0px" viewBox="0 0 100 125" enable-background="new 0 0 100 100" xml:space="preserve"><path fill="#000000" d="M26.095,74.364c0.821,1.455,1.909,2.469,3.245,3.03c0.08,0.096,0.169,0.185,0.277,0.254  c0.128,0.083,1.314,0.812,3.34,0.812c0,0,0,0,0,0c1.323,0,2.712-0.309,4.127-0.916c3.932-1.686,35.432-15.548,35.749-15.688  c0.36-0.159,0.625-0.479,0.714-0.862c0.214-0.923,5.178-22.702-0.945-30.408c-1.568-1.975-3.673-2.914-6.333-2.793  c-0.082-1.042-0.409-2.394-1.477-3.226c-1.086-0.846-2.561-0.91-4.384-0.193c-0.022,0.009-0.044,0.018-0.065,0.025  c-0.004-0.013-0.01-0.026-0.015-0.04c-0.271-0.71-0.935-1.218-1.973-1.509c-1.763-0.494-2.974-0.307-3.947-0.156  c-1.008,0.155-1.513,0.235-2.493-0.48c-0.826-0.603-1.766-0.808-2.718-0.59c-1.547,0.354-2.787,1.776-3.493,2.784  c-1.012-0.302-2.384-0.301-3.765,0.706c-4.946,3.604-11.542,16.92-14.537,24.467C24.854,55.996,22.678,68.31,26.095,74.364z   M27.913,64.039c0.435-1.605,1.212-1.844,1.467-1.922c1.932-0.588,5.549,1.625,7.56,3.289c-2.303,3.999-4.472,7.354-6.415,9.305  C28.931,73.345,26.282,70.052,27.913,64.039z M70.645,32.141c2.014,2.534,2.586,7.329,2.481,12.376l-3.036,1.846  c-0.59,0.358-0.777,1.128-0.419,1.718c0.235,0.387,0.647,0.601,1.069,0.601c0.221,0,0.445-0.059,0.648-0.182l1.602-0.974  c-0.325,4.797-1.12,9.463-1.741,12.297c-4.327,1.903-31.524,13.87-35.15,15.425c-1.102,0.473-2.159,0.713-3.141,0.713c0,0,0,0,0,0  c-0.054,0-0.107-0.001-0.159-0.002c3.313-3.614,6.885-10.202,10.925-17.653c6.661-12.284,14.95-27.573,22.581-28.015  C68.154,30.187,69.568,30.785,70.645,32.141z M29.725,50.503c3.678-9.265,9.802-20.538,13.687-23.369  c1.04-0.755,1.851-0.241,1.984-0.145c0.29,0.231,0.668,0.321,1.031,0.245c0.363-0.075,0.674-0.308,0.849-0.634  c0.377-0.704,1.523-2.321,2.478-2.539c0.177-0.044,0.386-0.049,0.688,0.172c1.816,1.324,3.162,1.116,4.35,0.932  c0.848-0.133,1.648-0.255,2.888,0.092c0.034,0.01,0.065,0.02,0.094,0.028c-0.403,0.666-0.407,1.248-0.009,1.73  c0.676,0.821,1.403,0.534,3.56-0.315c0.901-0.355,1.604-0.415,1.93-0.162c0.371,0.287,0.521,1.056,0.539,1.732  c-8.108,2.732-15.594,16.533-22.268,28.843c-1.131,2.086-2.246,4.141-3.335,6.09c-0.001,0-0.002-0.001-0.003-0.002  c0.449-0.844,0.379-1.538,0.228-1.98c-0.438-1.281-1.893-1.843-3.298-2.386c-2.281-0.882-2.599-1.234-2.397-1.846  c0.183-0.56,0.633-0.664,2.933-0.191c1.879,0.385,4.456,0.915,5.563-1.374c0.431-0.894,0.488-1.725,0.169-2.473  c-0.593-1.39-2.248-1.927-3.848-2.447c-1.137-0.369-2.552-0.829-2.847-1.446c-0.105-0.221-0.076-0.551,0.089-0.981  c0.172-0.452,0.359-0.533,0.42-0.56c0.634-0.277,2.138,0.334,3.346,0.825c1.723,0.701,3.504,1.428,4.972,0.768  c0.729-0.326,1.253-0.93,1.561-1.792c1.094-3.074-1.758-4.526-3.646-5.486c-0.875-0.445-2.073-1.056-2.226-1.529  c-0.046-0.145,0.042-0.366,0.125-0.526c0.347-0.674,1.02-0.603,3.426,0.375c2.176,0.881,5.159,2.092,6.845-0.646  c0.473-0.769,0.603-1.522,0.384-2.241c-0.401-1.319-1.788-1.953-3.13-2.565c-0.773-0.354-1.941-0.887-2.095-1.324  c-0.053-0.15,0.058-0.409,0.128-0.55c0.26-0.518,1.211-0.354,3.24,0.202c2.332,0.641,5.523,1.519,7.503-1.014  c0.641-0.82,0.844-1.849,0.544-2.75c-0.26-0.78-1.011-1.83-3.107-2.396c-0.669-0.179-1.353,0.215-1.533,0.881  c-0.18,0.667,0.214,1.353,0.88,1.533c0.98,0.265,1.333,0.61,1.388,0.772c0.039,0.116-0.043,0.295-0.141,0.42  c-0.888,1.135-2.506,0.793-4.871,0.144c-2.188-0.601-4.913-1.351-6.136,1.085c-0.443,0.881-0.528,1.723-0.253,2.503  c0.507,1.439,2.052,2.146,3.415,2.768c0.612,0.28,1.637,0.748,1.77,0.973c0,0-0.008,0.078-0.113,0.248  c-0.491,0.797-1.415,0.6-3.777-0.359c-2.037-0.825-5.113-2.073-6.59,0.8c-0.435,0.846-0.529,1.666-0.28,2.438  c0.472,1.462,1.997,2.237,3.471,2.988c2.262,1.151,2.715,1.604,2.424,2.421c-0.047,0.134-0.126,0.303-0.228,0.349  c-0.493,0.225-2.006-0.394-3.007-0.802c-1.811-0.736-3.683-1.499-5.284-0.803c-0.805,0.35-1.397,1.009-1.76,1.96  c-0.418,1.097-0.421,2.09-0.009,2.952c0.758,1.586,2.656,2.202,4.331,2.746c0.713,0.231,2.197,0.714,2.321,1.05  c0,0.001,0.019,0.115-0.121,0.404c-0.22,0.458-1.082,0.367-2.809,0.013c-1.938-0.398-4.87-1-5.811,1.859  c-0.524,1.593,0.048,2.675,0.973,3.448c-0.918-0.173-1.828-0.187-2.667,0.07c-0.44,0.135-0.938,0.365-1.418,0.758  C27.738,56.776,28.685,53.124,29.725,50.503z"/><path fill="#000000" d="M59.174,43.205l2.353,1.643c0.218,0.152,0.468,0.226,0.715,0.226c0.395,0,0.783-0.187,1.026-0.534  c0.395-0.566,0.257-1.346-0.309-1.74l-2.353-1.643c-0.565-0.396-1.345-0.256-1.741,0.309C58.47,42.031,58.608,42.811,59.174,43.205z  "/><path fill="#000000" d="M57.207,52.66c-0.641-0.256-1.369,0.051-1.627,0.691l-1.235,3.061c-0.258,0.641,0.051,1.369,0.691,1.627  c0.153,0.062,0.312,0.091,0.467,0.091c0.495,0,0.963-0.295,1.16-0.782l1.235-3.061C58.157,53.646,57.847,52.918,57.207,52.66z"/><path fill="#000000" d="M65.742,55.63h-2.669c-0.69,0-1.25,0.56-1.25,1.25s0.56,1.25,1.25,1.25h2.669c0.69,0,1.25-0.56,1.25-1.25  S66.433,55.63,65.742,55.63z"/><path fill="#000000" d="M46.874,60.075c-0.69,0-1.25,0.56-1.25,1.25v3.955c0,0.69,0.56,1.25,1.25,1.25s1.25-0.56,1.25-1.25v-3.955  C48.124,60.635,47.564,60.075,46.874,60.075z"/><path fill="#000000" d="M65.295,37.646c0.165,0.538,0.66,0.885,1.195,0.885c0.121,0,0.244-0.018,0.366-0.055  c0.66-0.201,1.032-0.9,0.83-1.561l-0.749-2.45c-0.202-0.659-0.9-1.03-1.561-0.83c-0.66,0.201-1.032,0.9-0.83,1.561L65.295,37.646z"/><text x="0" y="115" fill="#000000" font-size="5px" font-weight="bold" font-family="'Helvetica Neue', Helvetica, Arial-Unicode, Arial, Sans-serif">Created by Becca O'Shea</text><text x="0" y="120" fill="#000000" font-size="5px" font-weight="bold" font-family="'Helvetica Neue', Helvetica, Arial-Unicode, Arial, Sans-serif">from the Noun Project</text></svg>